<svg width="32" height="34" viewBox="0 0 32 34" fill="none" xmlns="http://www.w3.org/2000/svg">
<path d="M27.8176 10.6852C27.1042 10.6852 26.4876 10.4719 25.9676 10.0452C25.4476 9.61186 25.1742 9.00853 25.1476 8.2352H26.6476C26.6809 8.5552 26.8009 8.7952 27.0076 8.9552C27.2142 9.1152 27.4842 9.1952 27.8176 9.1952C28.1109 9.1952 28.3442 9.1252 28.5176 8.9852C28.6976 8.83853 28.7909 8.64853 28.7976 8.4152C28.8042 8.16186 28.7109 7.9552 28.5176 7.7952C28.3242 7.6352 28.0676 7.5552 27.7476 7.5552H27.1276V6.3452H27.6676C28.2742 6.3452 28.5842 6.08853 28.5976 5.5752C28.6042 5.36186 28.5309 5.18853 28.3776 5.05519C28.2242 4.9152 28.0276 4.8452 27.7876 4.8452C27.4942 4.8452 27.2542 4.93186 27.0676 5.10519C26.8809 5.27853 26.7909 5.48853 26.7976 5.7352H25.2876C25.2876 5.0152 25.5376 4.43853 26.0376 4.0052C26.5442 3.57186 27.1276 3.35519 27.7876 3.35519C28.5142 3.35519 29.0842 3.55853 29.4976 3.9652C29.9109 4.3652 30.1176 4.85853 30.1176 5.4452C30.1176 5.7652 30.0442 6.06186 29.8976 6.3352C29.7576 6.60186 29.5842 6.8152 29.3776 6.9752C29.6442 7.10853 29.8676 7.30853 30.0476 7.5752C30.2276 7.84186 30.3176 8.1652 30.3176 8.5452C30.3176 9.17186 30.0842 9.6852 29.6176 10.0852C29.1576 10.4852 28.5576 10.6852 27.8176 10.6852Z" fill="white"/>
<path d="M18.1158 15.6427V13.505C18.1158 12.8389 17.9846 12.1793 17.7297 11.5639C17.4748 10.9485 17.1012 10.3893 16.6301 9.9183C16.1591 9.44728 15.6 9.07365 14.9845 8.81873C14.3691 8.56382 13.7095 8.43262 13.0434 8.43262C12.3773 8.43262 11.7177 8.56382 11.1023 8.81873C10.4869 9.07365 9.92768 9.44728 9.45666 9.9183C8.98564 10.3893 8.61201 10.9485 8.3571 11.5639C8.10218 12.1793 7.97098 12.8389 7.97098 13.505V18.5775C7.97098 18.7696 8.04733 18.954 8.18322 19.0899C8.31912 19.2257 8.50343 19.3021 8.69561 19.3021C8.8878 19.3021 9.07211 19.2257 9.20801 19.0899C9.3439 18.954 9.42025 18.7696 9.42025 18.5775V17.092H15.2173V15.6427H9.42025V13.505C9.42025 12.5441 9.80197 11.6226 10.4814 10.9431C11.1609 10.2636 12.0825 9.88188 13.0434 9.88188C14.0043 9.88188 14.9259 10.2636 15.6054 10.9431C16.2848 11.6226 16.6666 12.5441 16.6666 13.505V18.5412C16.6666 18.7334 16.7429 18.9177 16.8788 19.0536C17.0147 19.1895 17.199 19.2659 17.3912 19.2659C17.5834 19.2659 17.7677 19.1895 17.9036 19.0536C18.0395 18.9177 18.1158 18.7334 18.1158 18.5412V17.092H21.739V30.1353H4.34782V17.092H6.52172V15.6427H2.89856V30.2006C2.89856 30.5676 3.04438 30.9197 3.30394 31.1792C3.5635 31.4388 3.91553 31.5846 4.28261 31.5846H21.8042C22.1713 31.5846 22.5233 31.4388 22.7829 31.1792C23.0424 30.9197 23.1882 30.5676 23.1882 30.2006V15.6427H18.1158Z" fill="#2B2E34"/>
<path fill-rule="evenodd" clip-rule="evenodd" d="M6.52168 15.6426V17.0919H4.34779V30.1352H21.739V17.0919H18.1158V18.5411C18.1158 18.7333 18.0394 18.9176 17.9036 19.0535C17.7677 19.1894 17.5833 19.2658 17.3912 19.2658C17.199 19.2658 17.0147 19.1894 16.8788 19.0535C16.7429 18.9176 16.6665 18.7333 16.6665 18.5411V13.5049C16.6665 12.544 16.2848 11.6225 15.6053 10.943C14.9259 10.2635 14.0043 9.88178 13.0434 9.88178C12.0824 9.88178 11.1609 10.2635 10.4814 10.943C9.80193 11.6225 9.42021 12.544 9.42021 13.5049V15.6426H15.2173V17.0919H9.42021V18.5774C9.42021 18.7695 9.34386 18.9539 9.20797 19.0898C9.07207 19.2256 8.88776 19.302 8.69558 19.302C8.50339 19.302 8.31908 19.2256 8.18319 19.0898C8.04729 18.9539 7.97095 18.7695 7.97095 18.5774V13.5049C7.97095 12.8388 8.10215 12.1792 8.35706 11.5638C8.61197 10.9484 8.98561 10.3892 9.45662 9.9182C9.92764 9.44718 10.4868 9.07355 11.1022 8.81863C11.7177 8.56372 12.3772 8.43252 13.0434 8.43252C13.7095 8.43252 14.3691 8.56372 14.9845 8.81863C15.5999 9.07355 16.1591 9.44718 16.6301 9.9182C17.1011 10.3892 17.4748 10.9484 17.7297 11.5638C17.9846 12.1792 18.1158 12.8388 18.1158 13.5049V15.6426H23.1882V30.2005C23.1882 30.5675 23.0424 30.9196 22.7828 31.1791C22.5233 31.4387 22.1712 31.5845 21.8042 31.5845H4.28257C3.9155 31.5845 3.56346 31.4387 3.3039 31.1791C3.04434 30.9196 2.89852 30.5675 2.89852 30.2005V15.6426H6.52168ZM18.2158 15.5426H23.2882V30.2005C23.2882 30.594 23.1319 30.9715 22.8535 31.2498C22.5752 31.5281 22.1978 31.6845 21.8042 31.6845H4.28257C3.88898 31.6845 3.5115 31.5281 3.23319 31.2498C2.95488 30.9715 2.79852 30.594 2.79852 30.2005V15.5426H6.62168V17.1919H4.44779V30.0352H21.639V17.1919H18.2158V18.5411C18.2158 18.7598 18.1289 18.9696 17.9743 19.1242C17.8196 19.2789 17.6099 19.3658 17.3912 19.3658C17.1725 19.3658 16.9627 19.2789 16.8081 19.1242C16.6534 18.9696 16.5665 18.7598 16.5665 18.5411V13.5049C16.5665 12.5705 16.1953 11.6744 15.5346 11.0137C14.8739 10.353 13.9778 9.98178 13.0434 9.98178C12.109 9.98178 11.2128 10.353 10.5521 11.0137C9.8914 11.6744 9.52021 12.5705 9.52021 13.5049V15.5426H15.3173V17.1919H9.52021V18.5774C9.52021 18.7961 9.43333 19.0058 9.27868 19.1605C9.12403 19.3151 8.91428 19.402 8.69558 19.402C8.47687 19.402 8.26712 19.3151 8.11247 19.1605C7.95783 19.0058 7.87095 18.7961 7.87095 18.5774V13.5049C7.87095 12.8257 8.00473 12.1531 8.26467 11.5255C8.52461 10.898 8.90561 10.3278 9.38591 9.84749C9.86622 9.36718 10.4364 8.98619 11.064 8.72625C11.6915 8.46631 12.3641 8.33252 13.0434 8.33252C13.7226 8.33252 14.3952 8.46631 15.0228 8.72625C15.6503 8.98619 16.2205 9.36718 16.7008 9.84749C17.1811 10.3278 17.5621 10.898 17.8221 11.5255C18.082 12.1531 18.2158 12.8257 18.2158 13.5049V15.5426Z" fill="#2B2E34"/>
</svg>
